<svg width="1024" height="1024" viewBox="0 0 1024 1024" fill="none" xmlns="http://www.w3.org/2000/svg">
<path d="M573 421C549.9 421 532 438.9 532 461C532 483.1 549.9 501 573 501C594.1 501 612 483.1 612 461C612 438.9 594.1 421 573 421ZM293 421C269.9 421 252 438.9 252 461C252 483.1 269.9 501 293 501C314.1 501 332 483.1 332 461C332 438.9 314.1 421 293 421Z" fill="#414141"/>
<path d="M894 345C845.9 279 778.7 234.9 705 215V215.1C687.9 196.1 668.6 178.6 647 163C483.3 44 253.5 80.3 134 244C37.6998 377 41.7998 555.9 140 683L140.8 815.6C140.8 818.8 141.3 822 142.3 825C147.6 841.9 165.6 851.2 182.4 845.9L309 806C342.5 817.9 377.1 824.7 411.5 826.6L411 827C500.1 891.9 616.9 911.4 724 876L851.1 917.4C854.3 918.4 857.6 919 861 919C878.7 919 893 904.7 893 887V753C981.1 633.4 983.4 468.1 894 345ZM323 735L311 730L212 761L211 657L203 648C118.4 544.8 112.8 396.1 192 287C288.4 154.8 473.2 125.6 605 221C737.2 317.1 766.5 501.6 671 633C590.9 742.9 447.5 783.5 323 735ZM828 718L820 728L821 832L723 799L711 804C655 824.8 595.3 826.5 540 811L539.8 810.9C613.7 788.2 680.7 742.2 729 676C805.4 570.7 817.8 438.4 773.4 325.6L774 326C797 342.5 818.1 363.1 836 388C908.6 487.6 904.5 623.2 828 718Z" fill="#414141"/>
<path d="M433 421C409.9 421 392 438.9 392 461C392 483.1 409.9 501 433 501C454.1 501 472 483.1 472 461C472 438.9 454.1 421 433 421Z" fill="#414141"/>
</svg>
